<?xml version="1.0" encoding="UTF-8" standalone="no"?>
<!-- Created with Inkscape (http://www.inkscape.org/) -->

<svg
   width="720"
   height="720"
   viewBox="0 0 720 720"
   version="1.1"
   id="svg1"
   xml:space="preserve"
   inkscape:version="1.4 (e7c3feb1, 2024-10-09)"
   sodipodi:docname="compute-blade-community.svg"
   inkscape:export-filename="logo-square.png"
   inkscape:export-xdpi="96"
   inkscape:export-ydpi="96"
   xmlns:inkscape="http://www.inkscape.org/namespaces/inkscape"
   xmlns:sodipodi="http://sodipodi.sourceforge.net/DTD/sodipodi-0.dtd"
   xmlns="http://www.w3.org/2000/svg"
   xmlns:svg="http://www.w3.org/2000/svg"><sodipodi:namedview
     id="namedview1"
     pagecolor="#ffffff"
     bordercolor="#000000"
     borderopacity="0.25"
     inkscape:showpageshadow="2"
     inkscape:pageopacity="0.0"
     inkscape:pagecheckerboard="0"
     inkscape:deskcolor="#d1d1d1"
     inkscape:document-units="px"
     inkscape:zoom="1.0478111"
     inkscape:cx="324.96317"
     inkscape:cy="364.09236"
     inkscape:window-width="2208"
     inkscape:window-height="1290"
     inkscape:window-x="1191"
     inkscape:window-y="1465"
     inkscape:window-maximized="0"
     inkscape:current-layer="layer2"><inkscape:page
       x="0"
       y="0"
       width="720"
       height="720"
       id="page1"
       margin="0"
       bleed="0"
       inkscape:export-filename="src/gh/compute-blade-community/.github/logo/logo.png"
       inkscape:export-xdpi="96"
       inkscape:export-ydpi="96" /></sodipodi:namedview><defs
     id="defs1"><inkscape:path-effect
       effect="powerstroke"
       message=""
       id="path-effect33"
       is_visible="true"
       lpeversion="1.3"
       scale_width="1"
       interpolator_type="CubicBezierJohan"
       interpolator_beta="0.2"
       start_linecap_type="zerowidth"
       end_linecap_type="zerowidth"
       offset_points="1,18.867925"
       linejoin_type="extrp_arc"
       miter_limit="4"
       not_jump="false"
       sort_points="true" /><inkscape:path-effect
       effect="bspline"
       id="path-effect32"
       is_visible="true"
       lpeversion="1.3"
       weight="33.333333"
       steps="2"
       helper_size="0"
       apply_no_weight="true"
       apply_with_weight="true"
       only_selected="false"
       uniform="false" /><inkscape:path-effect
       effect="fillet_chamfer"
       id="path-effect2"
       is_visible="false"
       lpeversion="1"
       nodesatellites_param="F,1,0,1,0,0.05,0,1 @ F,1,0,1,0,0.05,0,1 @ F,1,0,1,0,0.05,0,1 @ F,1,0,1,0,0.05,0,1"
       radius="5"
       unit="px"
       method="auto"
       mode="F"
       chamfer_steps="1"
       flexible="true"
       use_knot_distance="true"
       apply_no_radius="true"
       apply_with_radius="true"
       only_selected="false"
       hide_knots="false" /><clipPath
       clipPathUnits="userSpaceOnUse"
       id="clipPath17"><rect
         width="667.71338"
         height="209.33704"
         fill="#ffffff"
         transform="scale(-1)"
         id="rect17"
         x="-700.72528"
         y="-432.90961"
         style="stroke-width:1.48381" /></clipPath><clipPath
       clipPathUnits="userSpaceOnUse"
       id="clipPath18"><rect
         width="667.71338"
         height="209.33704"
         fill="#ffffff"
         transform="scale(-1)"
         id="rect18"
         x="-700.72528"
         y="-432.90961"
         style="stroke-width:1.48381" /></clipPath><clipPath
       clipPathUnits="userSpaceOnUse"
       id="clipPath19"><rect
         width="667.71338"
         height="209.33704"
         fill="#ffffff"
         transform="scale(-1)"
         id="rect19"
         x="-700.72528"
         y="-432.90961"
         style="stroke-width:1.48381" /></clipPath><clipPath
       clipPathUnits="userSpaceOnUse"
       id="clipPath20"><rect
         width="667.71338"
         height="209.33704"
         fill="#ffffff"
         transform="scale(-1)"
         id="rect20"
         x="-700.72528"
         y="-432.90961"
         style="stroke-width:1.48381" /></clipPath><clipPath
       clipPathUnits="userSpaceOnUse"
       id="clipPath21"><rect
         width="667.71338"
         height="209.33704"
         fill="#ffffff"
         transform="scale(-1)"
         id="rect21"
         x="-700.72528"
         y="-432.90961"
         style="stroke-width:1.48381" /></clipPath><clipPath
       clipPathUnits="userSpaceOnUse"
       id="clipPath22"><rect
         width="667.71338"
         height="209.33704"
         fill="#ffffff"
         transform="scale(-1)"
         id="rect22"
         x="-700.72528"
         y="-432.90961"
         style="stroke-width:1.48381" /></clipPath><clipPath
       clipPathUnits="userSpaceOnUse"
       id="clipPath23"><rect
         width="667.71338"
         height="209.33704"
         fill="#ffffff"
         transform="scale(-1)"
         id="rect23"
         x="-700.72528"
         y="-432.90961"
         style="stroke-width:1.48381" /></clipPath><clipPath
       clipPathUnits="userSpaceOnUse"
       id="clipPath24"><rect
         width="667.71338"
         height="209.33704"
         fill="#ffffff"
         transform="scale(-1)"
         id="rect24"
         x="-700.72528"
         y="-432.90961"
         style="stroke-width:1.48381" /></clipPath><clipPath
       clipPathUnits="userSpaceOnUse"
       id="clipPath25"><rect
         width="667.71338"
         height="209.33704"
         fill="#ffffff"
         transform="scale(-1)"
         id="rect25"
         x="-700.72528"
         y="-432.90961"
         style="stroke-width:1.48381" /></clipPath><clipPath
       clipPathUnits="userSpaceOnUse"
       id="clipPath26"><rect
         width="667.71338"
         height="209.33704"
         fill="#ffffff"
         transform="scale(-1)"
         id="rect26"
         x="-700.72528"
         y="-432.90961"
         style="stroke-width:1.48381" /></clipPath><clipPath
       clipPathUnits="userSpaceOnUse"
       id="clipPath27"><rect
         width="667.71338"
         height="209.33704"
         fill="#ffffff"
         transform="scale(-1)"
         id="rect27"
         x="-700.72528"
         y="-432.90961"
         style="stroke-width:1.48381" /></clipPath><clipPath
       clipPathUnits="userSpaceOnUse"
       id="clipPath28"><rect
         width="667.71338"
         height="209.33704"
         fill="#ffffff"
         transform="scale(-1)"
         id="rect28"
         x="-700.72528"
         y="-432.90961"
         style="stroke-width:1.48381" /></clipPath><clipPath
       clipPathUnits="userSpaceOnUse"
       id="clipPath29"><rect
         width="667.71338"
         height="209.33704"
         fill="#ffffff"
         transform="scale(-1)"
         id="rect29"
         x="-700.72528"
         y="-432.90961"
         style="stroke-width:1.48381" /></clipPath><clipPath
       clipPathUnits="userSpaceOnUse"
       id="clipPath19-8"><rect
         width="667.71338"
         height="209.33704"
         fill="#ffffff"
         transform="scale(-1)"
         id="rect19-1"
         x="-700.72528"
         y="-432.90961"
         style="stroke-width:1.48381" /></clipPath><clipPath
       clipPathUnits="userSpaceOnUse"
       id="clipPath18-4"><rect
         width="667.71338"
         height="209.33704"
         fill="#ffffff"
         transform="scale(-1)"
         id="rect18-9"
         x="-700.72528"
         y="-432.90961"
         style="stroke-width:1.48381" /></clipPath><clipPath
       clipPathUnits="userSpaceOnUse"
       id="clipPath17-5"><rect
         width="667.71338"
         height="209.33704"
         fill="#ffffff"
         transform="scale(-1)"
         id="rect17-9"
         x="-700.72528"
         y="-432.90961"
         style="stroke-width:1.48381" /></clipPath><inkscape:path-effect
       effect="fill_between_many"
       method="bsplinespiro"
       autoreverse="false"
       close="false"
       join="false"
       linkedpaths="#path32,0,1"
       id="path-effect34" /></defs><g
     inkscape:label="Layer 1"
     inkscape:groupmode="layer"
     id="layer1"
     style="display:none;fill:#000000"><path
       style="fill:#000000;fill-rule:evenodd;stroke:#000000;stroke-width:0;stroke-linejoin:round;stroke-dasharray:none;stroke-opacity:1;paint-order:markers fill stroke"
       id="rect1"
       width="720"
       height="720"
       x="0"
       y="0"
       sodipodi:type="rect"
       d="M 0,0 H 720 V 720 H 0 Z"
       inkscape:path-effect="#path-effect2" /></g><g
     id="g32"><g
       id="g31"><path
         d="m 565.2032,320.09009 113.01865,0.0307 22.50343,-32.69362 -144.922,0.0613 -26.33313,38.27021 -0.0312,92.41227 81.23995,-0.0312 22.47226,-32.63189 h -67.91684"
         fill="#ccff3d"
         id="path1"
         style="stroke-width:1.48381"
         clip-path="url(#clipPath29)" /><path
         d="m 667.10962,335.37984 -22.53458,32.69362 H 565.2032 l 22.47375,-32.57106 z"
         fill="#ccff3d"
         id="path2"
         style="stroke-width:1.48381"
         clip-path="url(#clipPath28)" /><path
         d="M 544.28597,287.42793 H 417.13702 l -41.21127,61.15883 v 69.55452 l 35.76421,0.0312 v -0.0312 h -0.0312 l 0.0312,-0.0312 -0.0312,-98.01914 h 67.07701 l -67.04585,98.01914 v 0.0312 l 42.54967,-0.0312 z"
         fill="#ccff3d"
         id="path3"
         style="stroke-width:1.48381"
         clip-path="url(#clipPath27)" /><path
         d="m 174.07452,342.70391 h -30.72135 l 38.13,-55.3064 H 43.314499 c 0,0 0.03116,86.83642 0.03116,130.71261 8.590726,0 21.850475,0 35.701373,0.0312 v -61.64894 -36.43193 l 39.436638,0.0307 -20.792152,30.15037 H 125.8294 L 79.047032,418.1413 c 27.079638,0 43.047188,0 43.047188,0 z"
         fill="#ccff3d"
         id="path4"
         style="stroke-width:1.48381"
         clip-path="url(#clipPath26)" /><path
         d="m 223.09803,287.42807 v 98.01899 h 116.19252 l -22.53459,32.69422 H 187.33382 V 287.42807 Z"
         fill="#ccff3d"
         id="path5"
         style="stroke-width:1.48381"
         clip-path="url(#clipPath25)" /><path
         d="m 362.13821,287.42837 -7.22169,10.3871 c -7.28401,-6.5571 -16.99405,-10.54038 -27.64036,-10.54038 h -55.34157 c -22.65923,0 -41.02431,18.07812 -41.02431,40.3845 0,22.30637 18.36508,40.38449 41.02431,40.38449 l 55.34157,-1.5e-4 c 12.45062,0 23.56286,-5.45403 31.09615,-14.06397 h 0.12316 l 0.43624,-0.64353 c 1.52535,-1.80772 2.86374,-3.76872 4.04634,-5.82172 l 41.86414,-60.08634 z m -42.39386,52.3649 h -40.30763 c -6.81661,0 -12.35715,-5.45403 -12.35715,-12.1644 0,-6.71022 5.54054,-12.16425 12.35715,-12.16425 h 40.30763 c 6.81661,0 12.35715,5.45403 12.35715,12.16425 0,6.74094 -5.54054,12.1644 -12.35715,12.1644 z"
         fill="#ccff3d"
         id="path6"
         style="stroke-width:1.48381"
         clip-path="url(#clipPath24)" /></g><g
       id="g30"><path
         d="m 52.527979,256.26589 c -1.8052,-1.04178 -3.205915,-2.48196 -4.233006,-4.3204 -1.02721,-1.83844 -1.52525,-3.89129 -1.52525,-6.15884 0,-2.26741 0.529155,-4.32026 1.52525,-6.15869 1.027091,-1.83847 2.427806,-3.27856 4.233006,-4.32035 1.805348,-1.04179 3.79736,-1.56268 6.038503,-1.56268 1.89868,0 3.641709,0.39831 5.260246,1.16433 1.618537,0.76601 2.92592,1.83846 3.921851,3.12537 0.99608,1.31749 1.587526,2.72696 1.743029,4.25899 h -4.077503 c -0.186663,-0.85794 -0.622457,-1.62388 -1.276074,-2.38997 -0.653618,-0.73538 -1.462886,-1.34819 -2.458966,-1.77711 -0.96492,-0.45961 -2.023172,-0.6741 -3.112583,-0.6741 -1.431726,0 -2.739109,0.36771 -3.890692,1.07245 -1.151731,0.70467 -2.054331,1.68517 -2.676937,2.9415 -0.653617,1.2562 -0.964771,2.69638 -0.964771,4.28969 0,1.59331 0.311154,3.03335 0.964771,4.28969 0.653766,1.25634 1.556366,2.23684 2.676937,2.9415 1.151583,0.70481 2.427806,1.0725 3.890692,1.0725 1.089411,0 2.147663,-0.21456 3.112583,-0.6741 0.99608,-0.42897 1.805348,-1.04178 2.458966,-1.77715 0.653617,-0.73538 1.089411,-1.53204 1.276074,-2.35941 h 4.077503 c -0.155503,1.50147 -0.746949,2.91094 -1.743029,4.19784 -0.995931,1.28691 -2.303314,2.32869 -3.921851,3.12535 -1.618537,0.79665 -3.361566,1.16434 -5.260246,1.16434 -2.240995,0.0918 -4.264314,-0.42897 -6.038503,-1.47075 z"
         fill="#ccff3d"
         id="path7"
         style="stroke-width:1.48381"
         clip-path="url(#clipPath23)" /><path
         d="m 98.656735,256.26589 c -1.805349,-1.04178 -3.237223,-2.48196 -4.264315,-4.3204 -1.027239,-1.83844 -1.556365,-3.89143 -1.556365,-6.12813 0,-2.2674 0.529126,-4.28968 1.556365,-6.12812 1.027092,-1.83847 2.458966,-3.27858 4.264315,-4.32036 1.805205,-1.0418 3.828375,-1.56269 6.069515,-1.56269 2.20998,0 4.23315,0.52089 6.03835,1.56268 1.80535,1.04179 3.23708,2.4819 4.26432,4.32037 1.02709,1.83844 1.55622,3.89128 1.55622,6.12812 0,2.26741 -0.52913,4.32026 -1.55622,6.12813 -1.02724,1.83844 -2.45897,3.27862 -4.26432,4.3204 -1.8052,1.04178 -3.82837,1.5626 -6.03835,1.5626 -2.24114,0 -4.26431,-0.52082 -6.069515,-1.5626 z m 9.960205,-3.21734 c 1.15173,-0.70466 2.08549,-1.68516 2.73911,-2.9415 0.65362,-1.25634 0.99608,-2.69637 0.99608,-4.28969 0,-1.59331 -0.3113,-3.03349 -0.96492,-4.28968 -0.65362,-1.25634 -1.55637,-2.23684 -2.7081,-2.9415 -1.15158,-0.70475 -2.45881,-1.07246 -3.92185,-1.07246 -1.46288,0 -2.77012,0.36771 -3.9217,1.07246 -1.151734,0.70466 -2.085494,1.68516 -2.739111,2.9415 -0.653765,1.25619 -0.99608,2.69637 -0.99608,4.28968 0,1.59332 0.342315,3.03335 0.99608,4.28969 0.653617,1.25634 1.556217,2.23684 2.739111,2.9415 1.15158,0.70481 2.45882,1.0725 3.9217,1.0725 1.40072,-0.0307 2.7081,-0.36769 3.85968,-1.0725 z"
         fill="#ccff3d"
         id="path8"
         style="stroke-width:1.48381"
         clip-path="url(#clipPath22)" /><path
         d="m 141.39262,257.43023 v -23.25635 h 5.35357 l 7.25241,16.79111 0.40463,1.2869 0.40464,-1.2869 7.0966,-16.79111 h 5.41605 v 23.25635 h -4.13982 v -16.54608 l 0.0623,-0.88851 -7.34574,17.43459 h -3.08157 l -7.31458,-17.31202 0.0312,0.76594 v 16.54608 z"
         fill="#ccff3d"
         id="path9"
         style="stroke-width:1.48381"
         clip-path="url(#clipPath21)"
         sodipodi:nodetypes="cccccccccccccccccc" /><path
         d="m 193.52872,257.43023 v -23.25635 h 9.99047 c 1.61884,0 3.05071,0.30641 4.26446,0.88858 1.21376,0.58217 2.17972,1.40948 2.83259,2.48191 0.65436,1.07237 0.99712,2.298 0.99712,3.70747 0,1.40947 -0.34276,2.6658 -1.02828,3.76887 -0.68403,1.07235 -1.64851,1.93028 -2.89491,2.51253 -1.24491,0.5821 -2.67678,0.8885 -4.35645,0.8885 h -5.7275 v 9.00849 z m 9.77384,-12.50152 c 1.21375,0 2.20938,-0.33697 2.92458,-0.9805 0.71668,-0.64338 1.0906,-1.53203 1.0906,-2.66566 0,-1.10306 -0.37392,-1.99171 -1.0906,-2.63509 -0.7152,-0.6435 -1.71083,-0.98055 -2.92458,-0.98055 h -5.63402 v 7.2618 z"
         fill="#ccff3d"
         id="path10"
         style="stroke-width:1.48381"
         clip-path="url(#clipPath20)" /><path
         d="m 239.87544,256.66414 c -1.46303,-0.79665 -2.61447,-1.86915 -3.42462,-3.27862 -0.80868,-1.40946 -1.21376,-3.00278 -1.21376,-4.8105 v -14.40114 h 4.13982 v 14.33986 c 0,1.13363 0.21812,2.11413 0.68552,2.97207 0.43476,0.85793 1.08912,1.53203 1.96011,1.99171 0.84132,0.49025 1.83696,0.70466 2.92607,0.70466 1.05796,0 2.02243,-0.24512 2.83259,-0.70466 0.83983,-0.49025 1.46303,-1.13378 1.89779,-1.99171 0.43624,-0.85794 0.68552,-1.83844 0.68552,-2.97207 v -14.33986 h 4.13982 v 14.40114 c 0,1.80772 -0.40508,3.43175 -1.21375,4.8105 -0.81016,1.40947 -1.93044,2.48197 -3.39347,3.27862 -1.46304,0.79666 -3.11155,1.16435 -4.97966,1.16435 -1.86811,0 -3.54778,-0.39826 -5.04198,-1.16435 z"
         fill="#ccff3d"
         id="path11"
         style="stroke-width:1.48381"
         clip-path="url(#clipPath19)" /><path
         d="m 285.72361,237.97332 h -7.31517 v -3.79945 h 18.76868 v 3.79945 h -7.31369 v 19.5182 h -4.13982 z"
         fill="#ccff3d"
         id="path12"
         style="stroke-width:1.48381"
         clip-path="url(#clipPath18)" /><path
         d="m 321.33202,234.17387 h 16.90057 v 3.61561 h -12.82306 v 6.15873 h 11.70279 v 3.58503 h -11.70279 v 6.25069 h 13.16582 v 3.61559 h -17.24333 z"
         fill="#ccff3d"
         id="path13"
         style="stroke-width:1.48381"
         clip-path="url(#clipPath17)" /></g></g><g
     inkscape:groupmode="layer"
     id="layer2"
     inkscape:label="Layer 2"><g
       id="g29"
       transform="matrix(1.364665,0,0,1.364665,48.124516,170.6938)"
       style="fill:#ff3dcb;fill-opacity:1"><path
         d="m 52.527976,224.41381 c -1.8052,-1.04178 -3.20591,-2.48196 -4.233,-4.3204 -1.02721,-1.83844 -1.52525,-3.89129 -1.52525,-6.15884 0,-2.26741 0.52915,-4.32026 1.52525,-6.15869 1.02709,-1.83847 2.4278,-3.27856 4.233,-4.32035 1.80535,-1.04179 3.79737,-1.56268 6.03851,-1.56268 1.89868,0 3.64171,0.39831 5.26024,1.16433 1.61854,0.76601 2.92592,1.83846 3.92186,3.12537 0.99608,1.31749 1.58752,2.72696 1.74302,4.25899 h -4.0775 c -0.18666,-0.85794 -0.62246,-1.62388 -1.276071,-2.38997 -0.653619,-0.73538 -1.46289,-1.34819 -2.45897,-1.77711 -0.96492,-0.45961 -2.02317,-0.6741 -3.11258,-0.6741 -1.43173,0 -2.739109,0.36771 -3.89069,1.07245 -1.151739,0.70467 -2.05434,1.68517 -2.67694,2.9415 -0.65362,1.2562 -0.96477,2.69638 -0.96477,4.28969 0,1.59331 0.31115,3.03335 0.96477,4.28969 0.65376,1.25634 1.55636,2.23684 2.67694,2.9415 1.151581,0.70481 2.4278,1.0725 3.89069,1.0725 1.08941,0 2.14766,-0.21456 3.11258,-0.6741 0.99608,-0.42897 1.80535,-1.04178 2.45897,-1.77715 0.653611,-0.73538 1.089411,-1.53204 1.276071,-2.35941 h 4.0775 c -0.1555,1.50147 -0.74694,2.91094 -1.74302,4.19784 -0.995941,1.28691 -2.30332,2.32869 -3.92186,3.12535 -1.61853,0.79665 -3.36156,1.16434 -5.260241,1.16434 -2.241,0.0918 -4.26432,-0.42897 -6.038509,-1.47075 z"
         fill="#ccff3d"
         id="path7-5"
         style="fill:#ff3dcb;fill-opacity:1;stroke-width:1.48381" /><path
         d="m 98.656735,224.35255 c -1.80535,-1.04178 -3.23722,-2.48196 -4.26431,-4.3204 -1.02724,-1.83844 -1.55637,-3.89143 -1.55637,-6.12813 0,-2.2674 0.52913,-4.28968 1.55637,-6.12812 1.02709,-1.83847 2.45896,-3.27858 4.26431,-4.32036 1.805205,-1.0418 3.828375,-1.56269 6.069525,-1.56269 2.20998,0 4.23315,0.52089 6.03835,1.56268 1.80535,1.04179 3.23707,2.4819 4.26431,4.32037 1.0271,1.83844 1.55622,3.89128 1.55622,6.12812 0,2.26741 -0.52912,4.32026 -1.55622,6.12813 -1.02724,1.83844 -2.45896,3.27862 -4.26431,4.3204 -1.8052,1.04178 -3.82837,1.5626 -6.03835,1.5626 -2.24115,0 -4.26432,-0.52082 -6.069525,-1.5626 z m 9.960215,-3.21734 c 1.15173,-0.70466 2.08549,-1.68516 2.73911,-2.9415 0.65361,-1.25634 0.99608,-2.69637 0.99608,-4.28969 0,-1.59331 -0.31131,-3.03349 -0.96492,-4.28968 -0.65362,-1.25634 -1.55637,-2.23684 -2.7081,-2.9415 -1.15158,-0.70475 -2.45882,-1.07246 -3.92185,-1.07246 -1.46289,0 -2.77012,0.36771 -3.92171,1.07246 -1.151731,0.70466 -2.085495,1.68516 -2.739105,2.9415 -0.65377,1.25619 -0.99608,2.69637 -0.99608,4.28968 0,1.59332 0.34231,3.03335 0.99608,4.28969 0.65361,1.25634 1.55621,2.23684 2.739105,2.9415 1.15159,0.70481 2.45882,1.0725 3.92171,1.0725 1.40071,-0.0307 2.70809,-0.36769 3.85968,-1.0725 z"
         fill="#ccff3d"
         id="path8-5"
         style="fill:#ff3dcb;fill-opacity:1;stroke-width:1.48381" /><path
         d="m 141.39261,225.1492 v -23.25635 h 5.35358 l 7.25241,16.79111 0.40463,1.2869 0.40463,-1.2869 7.09661,-16.79111 h 5.41605 v 23.25635 h -4.13983 v -16.54608 l 0.0623,-0.88851 -7.34573,17.43459 h -3.08158 l -7.31457,-17.31202 0.0312,0.76594 v 16.54608 z"
         fill="#ccff3d"
         id="path9-5"
         style="fill:#ff3dcb;fill-opacity:1;stroke-width:1.48381" /><path
         d="m 189.60708,225.1492 v -23.25635 h 5.35358 l 7.25241,16.79111 0.40463,1.2869 0.40463,-1.2869 7.09661,-16.79111 h 5.41605 v 23.25635 h -4.13983 v -16.54608 l 0.0623,-0.88851 -7.34573,17.43459 h -3.08158 l -7.31457,-17.31202 0.0312,0.76594 v 16.54608 z"
         fill="#ccff3d"
         id="path9-5-5"
         style="fill:#ff3dcb;fill-opacity:1;stroke-width:1.48381" /><path
         d="m 380.61515,201.893 4.04631,-1.5e-4 6.69209,9.87357 6.52276,-9.87357 4.05084,1.5e-4 -8.58632,12.50491 v 10.76259 h -4.13982 v -10.76259 z"
         fill="#ccff3d"
         id="path9-5-5-4"
         style="fill:#ff3dcb;fill-opacity:1;stroke:none;stroke-width:0.1;stroke-dasharray:none;stroke-opacity:1"
         sodipodi:nodetypes="cccccccccc" /><path
         d="m 239.87544,224.38311 c -1.46304,-0.79665 -2.61447,-1.86915 -3.42463,-3.27862 -0.80867,-1.40946 -1.21375,-3.00278 -1.21375,-4.8105 v -14.40114 h 4.13982 v 14.33986 c 0,1.13363 0.21812,2.11413 0.68552,2.97207 0.43475,0.85793 1.08911,1.53203 1.96011,1.99171 0.84132,0.49025 1.83695,0.70466 2.92607,0.70466 1.05795,0 2.02243,-0.24512 2.83259,-0.70466 0.83983,-0.49025 1.46303,-1.13378 1.89778,-1.99171 0.43624,-0.85794 0.68552,-1.83844 0.68552,-2.97207 v -14.33986 h 4.13983 v 14.40114 c 0,1.80772 -0.40508,3.43175 -1.21376,4.8105 -0.81016,1.40947 -1.93043,2.48197 -3.39347,3.27862 -1.46303,0.79666 -3.11154,1.16435 -4.97965,1.16435 -1.86812,0 -3.54779,-0.39826 -5.04198,-1.16435 z"
         fill="#ccff3d"
         id="path11-2"
         style="fill:#ff3dcb;fill-opacity:1;stroke-width:1.48381" /><path
         d="m 353.46288,205.6923 h -7.31517 v -3.79945 h 18.76868 v 3.79945 h -7.31369 v 19.5182 h -4.13982 z"
         fill="#ccff3d"
         id="path12-9"
         style="fill:#ff3dcb;fill-opacity:1;stroke-width:1.48381" /><path
         id="path12-9-3-6"
         style="fill:#ff3dcb;fill-opacity:1;stroke-width:1.48381"
         d="m 321.33202,201.89258 v 3.79883 15.71875 3.80078 h 4.14062 v -3.80078 -15.71875 -3.79883 z" /><path
         id="path9-5-4"
         style="fill:#ff3dcb;fill-opacity:1;stroke-width:1.48381"
         d="m 279.36896,201.89258 v 23.25586 h 4.13867 v -16.54492 l -0.0312,-0.76563 7.31445,17.31055 h 0.01 1.53125 3.88476 v -23.25586 h -4.14062 v 16.54687 l 0.0508,0.73047 -0.15234,-0.48632 -4.38477,-10.1504 -2.79687,-6.64062 h -0.0703 -1.4707 z" /></g></g><g
     inkscape:groupmode="layer"
     id="layer3"
     inkscape:label="Layer 3" /></svg>
