<?xml version="1.0" encoding="UTF-8" standalone="no"?>
<!-- Created with Inkscape (http://www.inkscape.org/) -->

<svg
   width="720"
   height="720"
   viewBox="0 0 720 720"
   version="1.1"
   id="svg1"
   xml:space="preserve"
   inkscape:version="1.4 (e7c3feb1, 2024-10-09)"
   sodipodi:docname="compute-blade-community.svg"
   inkscape:export-filename="logo.png"
   inkscape:export-xdpi="96"
   inkscape:export-ydpi="96"
   xmlns:inkscape="http://www.inkscape.org/namespaces/inkscape"
   xmlns:sodipodi="http://sodipodi.sourceforge.net/DTD/sodipodi-0.dtd"
   xmlns="http://www.w3.org/2000/svg"
   xmlns:svg="http://www.w3.org/2000/svg"><sodipodi:namedview
     id="namedview1"
     pagecolor="#ffffff"
     bordercolor="#000000"
     borderopacity="0.25"
     inkscape:showpageshadow="2"
     inkscape:pageopacity="0.0"
     inkscape:pagecheckerboard="0"
     inkscape:deskcolor="#d1d1d1"
     inkscape:document-units="px"
     inkscape:zoom="0.9983453"
     inkscape:cx="312.51712"
     inkscape:cy="221.86712"
     inkscape:window-width="2208"
     inkscape:window-height="1290"
     inkscape:window-x="1191"
     inkscape:window-y="1465"
     inkscape:window-maximized="0"
     inkscape:current-layer="layer1"><inkscape:page
       x="0"
       y="0"
       width="720"
       height="720"
       id="page1"
       margin="0"
       bleed="0"
       inkscape:export-filename="src/gh/compute-blade-community/.github/logo/logo.png"
       inkscape:export-xdpi="96"
       inkscape:export-ydpi="96" /></sodipodi:namedview><defs
     id="defs1"><inkscape:path-effect
       effect="fillet_chamfer"
       id="path-effect2"
       is_visible="true"
       lpeversion="1"
       nodesatellites_param="F,1,0,1,0,0.05,0,1 @ F,1,0,1,0,0.05,0,1 @ F,1,0,1,0,0.05,0,1 @ F,1,0,1,0,0.05,0,1"
       radius="5"
       unit="px"
       method="auto"
       mode="F"
       chamfer_steps="1"
       flexible="true"
       use_knot_distance="true"
       apply_no_radius="true"
       apply_with_radius="true"
       only_selected="false"
       hide_knots="false" /><clipPath
       id="clip0_407_7756"><rect
         width="450"
         height="141.08099"
         fill="#ffffff"
         transform="rotate(180,225,70.6215)"
         id="rect13"
         x="0"
         y="0" /></clipPath></defs><g
     inkscape:label="Layer 1"
     inkscape:groupmode="layer"
     id="layer1"
     style="fill:#000000"><path
       style="fill:#000000;fill-rule:evenodd;stroke:#000000;stroke-width:0;stroke-linejoin:round;stroke-dasharray:none;stroke-opacity:1;paint-order:markers fill stroke"
       id="rect1"
       width="720"
       height="720"
       x="0"
       y="0"
       sodipodi:type="rect"
       d="m 36,0 h 648 a 36,36 45 0 1 36,36 v 648 a 36,36 135 0 1 -36,36 H 36 A 36,36 45 0 1 0,684 V 36 A 36,36 135 0 1 36,0 Z"
       inkscape:path-effect="#path-effect2" /></g><g
     clip-path="url(#clip0_407_7756)"
     id="g13"
     transform="matrix(1.5766519,0,0,1.5766519,-0.22030048,223.6823)"><path
       d="m 358.666,65.2092 76.168,0.0207 15.166,-22.0336 -97.669,0.0413 -17.747,25.7919 -0.021,62.2805 54.751,-0.021 15.145,-21.992 h -45.772"
       fill="#ccff3d"
       id="path1" /><path
       d="m 427.345,75.5136 -15.187,22.0336 h -53.492 l 15.146,-21.951 z"
       fill="#ccff3d"
       id="path2" /><path
       d="M 344.569,43.1968 H 258.878 L 231.104,84.4143 V 131.29 l 24.103,0.021 v -0.021 h -0.021 l 0.021,-0.021 -0.021,-66.0592 h 45.206 l -45.185,66.0592 v 0.021 l 28.676,-0.021 z"
       fill="#ccff3d"
       id="path3" /><path
       d="M 95.068,80.4496 H 74.3636 L 100.061,43.1763 H 6.94335 c 0,0 0.021,58.5227 0.021,88.0927 5.78965,0 14.72595,0 24.06065,0.021 V 89.7422 65.1892 L 57.603,65.2099 43.5903,85.5295 H 62.5536 L 31.025,131.29 c 18.2501,0 29.0113,0 29.0113,0 z"
       fill="#ccff3d"
       id="path4" /><path
       d="m 128.107,43.1969 v 66.0591 h 78.307 L 191.227,131.29 H 104.004 V 43.1969 Z"
       fill="#ccff3d"
       id="path5" /><path
       d="m 221.812,43.1971 -4.867,7.0003 c -4.909,-4.4191 -11.453,-7.1036 -18.628,-7.1036 H 161.02 c -15.271,0 -27.648,12.1836 -27.648,27.2168 0,15.0332 12.377,27.2168 27.648,27.2168 l 37.297,-1e-4 c 8.391,0 15.88,-3.6757 20.957,-9.4783 h 0.083 l 0.294,-0.4337 c 1.028,-1.2183 1.93,-2.5399 2.727,-3.9235 L 250.592,43.1971 Z M 193.241,78.488 h -27.165 c -4.594,0 -8.328,-3.6757 -8.328,-8.1981 0,-4.5223 3.734,-8.198 8.328,-8.198 h 27.165 c 4.594,0 8.328,3.6757 8.328,8.198 0,4.543 -3.734,8.1981 -8.328,8.1981 z"
       fill="#ccff3d"
       id="path6" /><path
       d="M 13.1527,22.1954 C 11.9361,21.4933 10.9921,20.5227 10.2999,19.2837 9.60762,18.0447 9.27197,16.6612 9.27197,15.133 c 0,-1.5281 0.35662,-2.9116 1.02793,-4.1506 0.6922,-1.23902 1.6362,-2.20956 2.8528,-2.91166 1.2167,-0.70211 2.5592,-1.05316 4.0696,-1.05316 1.2796,0 2.4543,0.26844 3.5451,0.78469 1.0908,0.51625 1.9719,1.23902 2.6431,2.10632 0.6713,0.88791 1.0699,1.83781 1.1747,2.87031 h -2.748 c -0.1258,-0.5782 -0.4195,-1.0944 -0.86,-1.6107 -0.4405,-0.4956 -0.9859,-0.9086 -1.6572,-1.19767 -0.6503,-0.30975 -1.3635,-0.4543 -2.0977,-0.4543 -0.9649,0 -1.846,0.24781 -2.6221,0.72277 -0.7762,0.4749 -1.3845,1.1357 -1.8041,1.9824 -0.4405,0.8466 -0.6502,1.8172 -0.6502,2.891 0,1.0738 0.2097,2.0443 0.6502,2.891 0.4406,0.8467 1.0489,1.5075 1.8041,1.9824 0.7761,0.475 1.6362,0.7228 2.6221,0.7228 0.7342,0 1.4474,-0.1446 2.0977,-0.4543 0.6713,-0.2891 1.2167,-0.7021 1.6572,-1.1977 0.4405,-0.4956 0.7342,-1.0325 0.86,-1.5901 h 2.748 c -0.1048,1.0119 -0.5034,1.9618 -1.1747,2.8291 -0.6712,0.8673 -1.5523,1.5694 -2.6431,2.1063 -1.0908,0.5369 -2.2655,0.7847 -3.5451,0.7847 -1.5103,0.0619 -2.8739,-0.2891 -4.0696,-0.9912 z"
       fill="#ccff3d"
       id="path7" /><path
       d="m 44.2408,22.1954 c -1.2167,-0.7021 -2.1817,-1.6727 -2.8739,-2.9117 -0.6923,-1.239 -1.0489,-2.6226 -1.0489,-4.13 0,-1.5281 0.3566,-2.891 1.0489,-4.13 0.6922,-1.23902 1.6572,-2.20957 2.8739,-2.91167 1.2166,-0.70211 2.5801,-1.05316 4.0905,-1.05316 1.4894,0 2.8529,0.35105 4.0695,1.05315 1.2167,0.70211 2.1816,1.67266 2.8739,2.91168 0.6922,1.239 1.0488,2.6225 1.0488,4.13 0,1.5281 -0.3566,2.9116 -1.0488,4.13 -0.6923,1.239 -1.6572,2.2096 -2.8739,2.9117 -1.2166,0.7021 -2.5801,1.0531 -4.0695,1.0531 -1.5104,0 -2.8739,-0.351 -4.0905,-1.0531 z m 6.7126,-2.1683 c 0.7762,-0.4749 1.4055,-1.1357 1.846,-1.9824 0.4405,-0.8467 0.6713,-1.8172 0.6713,-2.891 0,-1.0738 -0.2098,-2.0444 -0.6503,-2.891 -0.4405,-0.8467 -1.0489,-1.5075 -1.8251,-1.9824 -0.7761,-0.47496 -1.6571,-0.72277 -2.6431,-0.72277 -0.9859,0 -1.8669,0.24781 -2.643,0.72277 -0.7762,0.4749 -1.4055,1.1357 -1.846,1.9824 -0.4406,0.8466 -0.6713,1.8172 -0.6713,2.891 0,1.0738 0.2307,2.0443 0.6713,2.891 0.4405,0.8467 1.0488,1.5075 1.846,1.9824 0.7761,0.475 1.6571,0.7228 2.643,0.7228 0.944,-0.0207 1.8251,-0.2478 2.6012,-0.7228 z"
       fill="#ccff3d"
       id="path8" /><path
       d="M 73.0423,22.9801 V 7.30667 h 3.608 l 4.8877,11.31623 0.2727,0.8673 0.2727,-0.8673 4.7827,-11.31623 h 3.6501 V 22.9801 h -2.79 V 11.829 l 0.042,-0.5988 -4.9506,11.7499 h -2.0768 l -4.9296,-11.6673 0.021,0.5162 v 11.1511 z"
       fill="#ccff3d"
       id="path9" /><path
       d="M 108.179,22.9801 V 7.30667 h 6.733 c 1.091,0 2.056,0.2065 2.874,0.59885 0.818,0.39235 1.469,0.94991 1.909,1.67266 0.441,0.72272 0.672,1.54872 0.672,2.49862 0,0.9499 -0.231,1.7966 -0.693,2.54 -0.461,0.7227 -1.111,1.3009 -1.951,1.6933 -0.839,0.3923 -1.804,0.5988 -2.936,0.5988 h -3.86 v 6.0712 z m 6.587,-8.4253 c 0.818,0 1.489,-0.2271 1.971,-0.6608 0.483,-0.4336 0.735,-1.0325 0.735,-1.7965 0,-0.7434 -0.252,-1.3423 -0.735,-1.7759 -0.482,-0.43368 -1.153,-0.66083 -1.971,-0.66083 h -3.797 v 4.89403 z"
       fill="#ccff3d"
       id="path10" /><path
       d="m 139.414,22.4638 c -0.986,-0.5369 -1.762,-1.2597 -2.308,-2.2096 -0.545,-0.9499 -0.818,-2.0237 -0.818,-3.242 V 7.30667 h 2.79 v 9.66423 c 0,0.764 0.147,1.4248 0.462,2.003 0.293,0.5782 0.734,1.0325 1.321,1.3423 0.567,0.3304 1.238,0.4749 1.972,0.4749 0.713,0 1.363,-0.1652 1.909,-0.4749 0.566,-0.3304 0.986,-0.7641 1.279,-1.3423 0.294,-0.5782 0.462,-1.239 0.462,-2.003 V 7.30667 h 2.79 v 9.70553 c 0,1.2183 -0.273,2.3128 -0.818,3.242 -0.546,0.9499 -1.301,1.6727 -2.287,2.2096 -0.986,0.5369 -2.097,0.7847 -3.356,0.7847 -1.259,0 -2.391,-0.2684 -3.398,-0.7847 z"
       fill="#ccff3d"
       id="path11" /><path
       d="m 170.313,9.86727 h -4.93 V 7.30666 h 12.649 v 2.56061 h -4.929 V 23.0214 h -2.79 z"
       fill="#ccff3d"
       id="path12" /><path
       d="m 194.311,7.30666 h 11.39 v 2.43671 h -8.642 V 13.894 h 7.887 v 2.4161 h -7.887 v 4.2126 h 8.873 v 2.4367 h -11.621 z"
       fill="#ccff3d"
       id="path13" /></g><path
     style="font-size:27.8875px;font-family:'FONTSPRING DEMO - Inerta';-inkscape-font-specification:'FONTSPRING DEMO - Inerta';fill:#ccff3d;fill-rule:evenodd;stroke:#ccff3d;stroke-width:1.09673;paint-order:markers fill stroke"
     d="m 237.40893,477.07815 -2.94131,-0.23941 c -1.06025,3.04392 -3.86475,4.9934 -7.35328,4.9934 -4.8224,0 -8.17412,-3.76215 -8.17412,-9.37117 0,-5.60902 3.35172,-9.37116 8.17412,-9.37116 3.48853,0 6.29303,1.94946 7.35328,4.99339 l 2.94131,-0.23941 c -1.40226,-4.75398 -5.267,-7.6269 -10.3288,-7.6269 -6.60086,0 -11.32064,4.95919 -11.32064,12.24408 0,7.28489 4.65138,12.24409 11.32064,12.24409 5.0618,0 8.92654,-2.87292 10.3288,-7.62691 z m 25.48369,-4.61718 c 0,7.18229 4.65138,12.24409 11.35485,12.24409 6.66926,0 11.32064,-5.0618 11.32064,-12.24409 0,-7.18228 -4.65138,-12.24408 -11.32064,-12.24408 -6.70347,0 -11.35485,5.0618 -11.35485,12.24408 z m 3.14652,0 c 0,-5.57482 3.31754,-9.37116 8.20833,-9.37116 4.85659,0 8.17412,3.79634 8.17412,9.37116 0,5.57482 -3.31753,9.37117 -8.17412,9.37117 -4.89079,0 -8.20833,-3.79635 -8.20833,-9.37117 z m 57.73107,10.94443 h 2.3941 l 8.27672,-18.77654 v 19.80259 h 2.87292 V 460.4905 h -3.96736 l -8.37933,18.67393 -8.44773,-18.67393 h -3.96735 v 23.94095 h 2.87291 v -19.80259 z m 51.23815,0 h 2.39409 l 8.27673,-18.77654 v 19.80259 h 2.87292 V 460.4905 h -3.96736 l -8.37933,18.67393 -8.44773,-18.67393 h -3.96736 v 23.94095 h 2.87292 v -19.80259 z m 50.82499,-7.5585 c 0,3.55694 -2.7019,5.98524 -6.66926,5.98524 -3.96735,0 -6.66927,-2.4283 -6.66927,-5.98524 v -15.3564 h -3.00972 v 15.56161 c 0,5.0618 4.00156,8.65295 9.67899,8.65295 5.67742,0 9.67898,-3.59115 9.67898,-8.65295 V 460.4905 h -3.00972 z m 28.1616,8.58455 h 2.94132 v -18.43454 l 14.43297,18.43454 h 2.12049 V 460.4905 h -2.94133 v 18.43453 L 456.11544,460.4905 h -2.12049 z m 49.73622,0 h 3.00972 V 460.4905 h -3.00972 z m 37.35154,0 h 3.00972 V 463.0556 h 8.20833 v -2.5651 h -19.42637 v 2.5651 h 8.20832 z m 56.50426,-23.94095 h -3.62534 l -7.07967,10.70502 -7.07969,-10.70502 h -3.62534 l 9.20017,13.54374 v 10.39721 h 3.00972 v -10.39721 z"
     id="text1-8"
     aria-label="COMMUNITY" /></svg>
